Run_20002
nRows=4
nColumns=164

# SIMM Motion File Header:
name Run_20002
datacolumns 164
datarows 4
otherdata 1
range 3.16000000 3.19000000
endheader
time	pelvis_tilt	pelvis_list	pelvis_rotation	pelvis_tx	pelvis_ty	pelvis_tz	hip_flexion_r	hip_adduction_r	hip_rotation_r	knee_angle_r	ankle_angle_r	hip_flexion_l	hip_adduction_l	hip_rotation_l	knee_angle_l	ankle_angle_l	lumbar_extension	lumbar_bending	lumbar_rotation	arm_flex_r	arm_add_r	arm_rot_r	elbow_flex_r	pro_sup_r	arm_flex_l	arm_add_l	arm_rot_l	elbow_flex_l	pro_sup_l	subtalar_angle_r	mtp_angle_r	subtalar_angle_l	mtp_angle_l	wrist_flex_r	wrist_dev_r	wrist_flex_l	wrist_dev_l	LASI_tx	LASI_ty	LASI_tz	RASI_tx	RASI_ty	RASI_tz	LPSI_tx	LPSI_ty	LPSI_tz	RPSI_tx	RPSI_ty	RPSI_tz	RTH1_tx	RTH1_ty	RTH1_tz	RTH2_tx	RTH2_ty	RTH2_tz	RTH3_tx	RTH3_ty	RTH3_tz	LTH1_tx	LTH1_ty	LTH1_tz	LTH2_tx	LTH2_ty	LTH2_tz	LTH3_tx	LTH3_ty	LTH3_tz	RTB1_tx	RTB1_ty	RTB1_tz	RTB2_tx	RTB2_ty	RTB2_tz	RTB3_tx	RTB3_ty	RTB3_tz	LTB1_tx	LTB1_ty	LTB1_tz	LTB2_tx	LTB2_ty	LTB2_tz	LTB3_tx	LTB3_ty	LTB3_tz	RCAL_tx	RCAL_ty	RCAL_tz	RTOE_tx	RTOE_ty	RTOE_tz	RMT5_tx	RMT5_ty	RMT5_tz	LCAL_tx	LCAL_ty	LCAL_tz	LTOE_tx	LTOE_ty	LTOE_tz	LMT5_tx	LMT5_ty	LMT5_tz	LACR_tx	LACR_ty	LACR_tz	RACR_tx	RACR_ty	RACR_tz	CLAV_tx	CLAV_ty	CLAV_tz	C7_tx	C7_ty	C7_tz	RUA1_tx	RUA1_ty	RUA1_tz	RUA2_tx	RUA2_ty	RUA2_tz	RUA3_tx	RUA3_ty	RUA3_tz	RLEL_tx	RLEL_ty	RLEL_tz	RMEL_tx	RMEL_ty	RMEL_tz	LUA1_tx	LUA1_ty	LUA1_tz	LUA2_tx	LUA2_ty	LUA2_tz	LUA3_tx	LUA3_ty	LUA3_tz	LLEL_tx	LLEL_ty	LLEL_tz	LMEL_tx	LMEL_ty	LMEL_tz	RFAsuperior_tx	RFAsuperior_ty	RFAsuperior_tz	RFAradius_tx	RFAradius_ty	RFAradius_tz	RFAulna_tx	RFAulna_ty	RFAulna_tz	LFAsuperior_tx	LFAsuperior_ty	LFAsuperior_tz	LFAradius_tx	LFAradius_ty	LFAradius_tz	LFAulna_tx	LFAulna_ty	LFAulna_tz
      3.16000000	     -1.01053301	     -3.69464870	      1.38623125	      1.14234972	      1.03188172	     -0.32057915	     19.11851723	      6.55531681	     -0.62981918	    -17.87819533	      9.34500751	    -20.93959106	      2.12843341	     14.27517267	     -7.72669989	    -10.99994829	    -11.67204349	      6.97007451	     -6.94447682	    -54.99922297	    -15.27441273	     -9.23775916	    137.50832584	     91.80762571	     -6.33824299	    -16.74910405	     17.11540251	    132.18734143	     90.62690364	      0.00000000	      0.00000000	      0.00000000	      0.00000000	      0.00000000	      0.00000000	      0.00000000	      0.00000000	      1.14637746	      1.05826384	     -0.44423115	      1.14506410	      1.05947749	     -0.18705510	      0.98461422	      1.10048913	     -0.36494954	      0.97600777	      1.10251809	     -0.27211082	      1.12968383	      0.88896723	     -0.12454966	      1.19116964	      0.79936034	     -0.14264822	      1.15591476	      0.65782715	     -0.15998407	      1.05217096	      0.89451992	     -0.49355321	      1.06913030	      0.75571665	     -0.45972080	      0.95316965	      0.66999220	     -0.45311225	      1.24291389	      0.40354071	     -0.23094830	      1.19841426	      0.29747071	     -0.19478818	      1.22844873	      0.22920296	     -0.25888875	      0.86569729	      0.39519725	     -0.37419217	      0.80393926	      0.35851631	     -0.41415779	      0.78562623	      0.28115543	     -0.35605661	      1.11954960	      0.11019192	     -0.26995774	      1.35374381	      0.14325831	     -0.27402640	      1.34059255	      0.10795530	     -0.20197103	      0.62931915	      0.23930118	     -0.33381033	      0.80067304	      0.07591553	     -0.29560886	      0.76286860	      0.06462142	     -0.37938596	      1.16400132	      1.59667056	     -0.46327301	      1.12489432	      1.56925560	     -0.13724879	      1.18457446	      1.51405196	     -0.26912264	      1.07098872	      1.60170510	     -0.31289716	      1.02079180	      1.49246792	     -0.06090069	      0.95998730	      1.51492777	     -0.08820729	      0.93571779	      1.45379433	     -0.05055434	      0.86687549	      1.40065851	     -0.03764773	      0.84585512	      1.40825892	     -0.13046714	      1.13778254	      1.48649911	     -0.55458190	      1.06312884	      1.43263230	     -0.56827065	      1.11176249	      1.36356105	     -0.58983943	      1.10260781	      1.29216932	     -0.60431056	      1.03790373	      1.28013662	     -0.53757996	      0.94681316	      1.36547149	     -0.04591887	      1.09408338	      1.30812952	     -0.11390921	      1.05623514	      1.24951818	     -0.09943417	      1.17508109	      1.28975124	     -0.55330489	      1.26822410	      1.33956697	     -0.40847038	      1.28596861	      1.26968942	     -0.41553591
      3.17000000	     -1.10473763	     -3.40073682	      1.27476557	      1.14349214	      1.03173509	     -0.32071675	     18.24922436	      6.43933872	     -0.22384024	    -14.47271652	      9.38379518	    -21.03946713	      2.50662611	     14.65502062	     -9.18219511	    -12.31427521	    -11.37385131	      6.79660414	     -6.49137779	    -55.26689100	    -15.35948770	     -9.34775323	    137.93724438	     92.71041801	     -7.19605250	    -17.26927844	     17.73691768	    132.38992310	     90.47924085	      0.00000000	      0.00000000	      0.00000000	      0.00000000	      0.00000000	      0.00000000	      0.00000000	      0.00000000	      1.14710021	      1.05728273	     -0.44414060	      1.14617656	      1.05919705	     -0.18701909	      0.98562881	      1.10107477	     -0.36546922	      0.97679349	      1.10256988	     -0.27233990	      1.12972723	      0.88736676	     -0.12528647	      1.18953942	      0.79619710	     -0.14293438	      1.15088229	      0.65533673	     -0.16065633	      1.05408160	      0.89523332	     -0.49403390	      1.07055433	      0.75632656	     -0.45932379	      0.95474869	      0.67080612	     -0.45395531	      1.24343537	      0.40270913	     -0.23272140	      1.20304511	      0.29486267	     -0.19691982	      1.23622542	      0.22820620	     -0.26127499	      0.86181477	      0.39699898	     -0.37516022	      0.79951794	      0.36199152	     -0.41580990	      0.77823240	      0.28531772	     -0.35783607	      1.13263823	      0.10408140	     -0.27277630	      1.36502762	      0.14854165	     -0.27686259	      1.35381375	      0.11157686	     -0.20544168	      0.62169625	      0.24978817	     -0.33758174	      0.78496019	      0.07737079	     -0.29703236	      0.74668513	      0.06731280	     -0.38078454	      1.16196382	      1.59782404	     -0.46188236	      1.12556745	      1.56900245	     -0.13668136	      1.18389201	      1.51435195	     -0.26859821	      1.07011274	      1.60199973	     -0.31148542	      1.02228413	      1.49244775	     -0.05909708	      0.96126383	      1.51450711	     -0.08617329	      0.93730152	      1.45382620	     -0.04796991	      0.86845248	      1.40002744	     -0.03487385	      0.84670053	      1.40775630	     -0.12754789	      1.13567260	      1.48921476	     -0.55448949	      1.06048194	      1.43624633	     -0.56798029	      1.10873397	      1.36719881	     -0.59135922	      1.09893139	      1.29552040	     -0.60620322	      1.03370177	      1.28348268	     -0.53981865	      0.94879722	      1.36572277	     -0.04428268	      1.09579747	      1.30947195	     -0.11416842	      1.05880097	      1.25053683	     -0.09859689	      1.17097841	      1.29197437	     -0.55479558	      1.26396404	      1.33920723	     -0.40872488	      1.28060723	      1.26920880	     -0.41615641
      3.18000000	     -1.14683952	     -3.05142911	      1.14690865	      1.14446344	      1.03078038	     -0.32088954	     17.57721800	      6.22570438	     -0.08931257	    -12.07207135	      9.56444078	    -20.91079200	      3.02045215	     15.13625952	    -11.18315724	    -13.39871690	    -11.16330930	      6.54013150	     -6.06737306	    -55.17074470	    -15.54764496	     -9.34412551	    138.16255013	     93.44883901	     -8.26377755	    -17.66845697	     18.11938929	    132.45488690	     90.19745023	      0.00000000	      0.00000000	      0.00000000	      0.00000000	      0.00000000	      0.00000000	      0.00000000	      0.00000000	      1.14784273	      1.05524602	     -0.44399140	      1.14730631	      1.05785978	     -0.18692510	      0.98618047	      1.10096488	     -0.36592596	      0.97711466	      1.10174126	     -0.27231709	      1.12978839	      0.88485555	     -0.12623002	      1.18798074	      0.79244162	     -0.14276876	      1.14664861	      0.65214478	     -0.16151801	      1.05609301	      0.89518995	     -0.49437785	      1.07304232	      0.75609818	     -0.45895875	      0.95807994	      0.66992411	     -0.45489813	      1.24348531	      0.40127731	     -0.23440880	      1.20587986	      0.29236284	     -0.19900133	      1.24146282	      0.22697697	     -0.26358358	      0.85952941	      0.39727563	     -0.37625735	      0.79653526	      0.36435358	     -0.41748363	      0.77193468	      0.28861657	     -0.35975599	      1.14171689	      0.09906014	     -0.27557011	      1.37256134	      0.15175461	     -0.27864982	      1.36244186	      0.11392560	     -0.20753520	      0.61499112	      0.25995085	     -0.34176975	      0.76918655	      0.07892439	     -0.29840694	      0.73114944	      0.07016456	     -0.38223829	      1.15985585	      1.59799235	     -0.46118056	      1.12621993	      1.56763376	     -0.13582141	      1.18348679	      1.51373074	     -0.26803019	      1.06951777	      1.60136603	     -0.31003999	      1.02390646	      1.49080798	     -0.05726859	      0.96252760	      1.51226514	     -0.08392470	      0.93909437	      1.45194402	     -0.04521907	      0.87048740	      1.39727702	     -0.03192879	      0.84799980	      1.40506538	     -0.12446397	      1.13301409	      1.49043675	     -0.55435393	      1.05715794	      1.43849872	     -0.56746358	      1.10483584	      1.36951844	     -0.59281967	      1.09422558	      1.29757022	     -0.60786918	      1.02872227	      1.28571973	     -0.54159034	      0.95124525	      1.36396338	     -0.04250047	      1.09804954	      1.30908671	     -0.11428789	      1.06201658	      1.24972391	     -0.09765135	      1.16597253	      1.29260901	     -0.55627703	      1.25964484	      1.33683537	     -0.40954029	      1.27478657	      1.26675840	     -0.41715245
      3.19000000	     -1.11313680	     -2.68938984	      1.03954116	      1.14522842	      1.02910835	     -0.32106903	     17.07680661	      5.98540569	     -0.22143474	    -10.67428777	      9.85524573	    -20.59933317	      3.61270578	     15.71857914	    -13.68873079	    -14.32945964	    -11.07446191	      6.24807181	     -5.71187192	    -54.69535278	    -15.84640096	     -9.20223065	    138.17692888	     93.98147497	     -9.53621732	    -17.93690739	     18.18508300	    132.35906942	     90.06395929	      0.00000000	      0.00000000	      0.00000000	      0.00000000	      0.00000000	      0.00000000	      0.00000000	      0.00000000	      1.14848920	      1.05232876	     -0.44384439	      1.14834379	      1.05563903	     -0.18682646	      0.98616852	      1.10004302	     -0.36592991	      0.97727728	      1.10002871	     -0.27212966	      1.12977981	      0.88145768	     -0.12719533	      1.18640804	      0.78814349	     -0.14226211	      1.14357543	      0.64839571	     -0.16247128	      1.05814305	      0.89431765	     -0.49460714	      1.07642529	      0.75492750	     -0.45858679	      0.96293980	      0.66738179	     -0.45585629	      1.24313622	      0.39913869	     -0.23627739	      1.20712936	      0.28961561	     -0.20110065	      1.24416263	      0.22511186	     -0.26589597	      0.85867714	      0.39620063	     -0.37744215	      0.79491741	      0.36579211	     -0.41929163	      0.76669599	      0.29117370	     -0.36183337	      1.14654825	      0.09520098	     -0.27839221	      1.37644724	      0.15243636	     -0.27998047	      1.36642261	      0.11465765	     -0.20868849	      0.60934184	      0.26978828	     -0.34647101	      0.75324515	      0.08082779	     -0.29966653	      0.71627257	      0.07301039	     -0.38365289	      1.15780689	      1.59693367	     -0.46091332	      1.12689572	      1.56520050	     -0.13463096	      1.18339118	      1.51223186	     -0.26737424	      1.06922108	      1.59980699	     -0.30855447	      1.02564312	      1.48751246	     -0.05546147	      0.96380018	      1.50827376	     -0.08138728	      0.94111120	      1.44816630	     -0.04231122	      0.87300073	      1.39248909	     -0.02883418	      0.84978675	      1.40028138	     -0.12124285	      1.12970448	      1.49026197	     -0.55417273	      1.05321925	      1.43936110	     -0.56672638	      1.10005259	      1.37047853	     -0.59415340	      1.08850748	      1.29830903	     -0.60926041	      1.02310079	      1.28685725	     -0.54283133	      0.95414638	      1.36018778	     -0.04056099	      1.10078391	      1.30699908	     -0.11424474	      1.06584879	      1.24712848	     -0.09664125	      1.16011259	      1.29161119	     -0.55774036	      1.25529229	      1.33245157	     -0.41083841	      1.26868288	      1.26230335	     -0.41889556
